# xmcd
#
# Track frame offsets: 
#        182
#        44057
#        74507
#        106082
#        142382
#
# Disc length: 2579 seconds
#
# Revision: 2
# Processed by: cddbd v1.5.2PL0 Copyright (c) Steve Scherf et al.
# Submitted via: ExactAudioCopy v0.99pb5
#
DISCID=4f0a1105
DTITLE=Woody Shaw - Lotus Flower
DYEAR=1982
DGENRE=Jazz
TTITLE0=Eastern Joy Dance
TTITLE1=Game
TTITLE2=Lotus Flower
TTITLE3=Rahsaan's Run
TTITLE4=Songs of Songs
EXTD=YEAR: 1990
EXTT0=
EXTT1=
EXTT2=
EXTT3=
EXTT4=
PLAYORDER=
